<svg width="29" height="25" viewBox="0 0 29 25" fill="none" xmlns="http://www.w3.org/2000/svg">
<path d="M19.3469 0.917328L23.8364 8.40875H28.6209V11.1025H26.9898L25.9317 23.3364C25.9026 23.673 25.7433 23.9867 25.4855 24.2155C25.2276 24.4442 24.89 24.5713 24.5395 24.5715H4.74743C4.3967 24.5716 4.05873 24.4447 3.80059 24.2159C3.54244 23.9871 3.38299 23.6732 3.35388 23.3364L2.29579 11.1025H0.666016V8.40875H5.4491L9.93866 0.917328L12.3596 2.26422L8.67789 8.40875H20.6077L16.9274 2.26422L19.3483 0.917328H19.3469ZM24.1831 11.1025H5.10246L6.03476 21.8777H23.2536L24.1859 11.1025H24.1831ZM16.0412 13.7963V19.1839H13.2457V13.7963H16.0412ZM10.4502 13.7963V19.1839H7.65475V13.7963H10.4502ZM21.6322 13.7963V19.1839H18.8367V13.7963H21.6322Z" fill="white"/>
</svg>
